<?xml version="1.0" encoding="UTF-8" standalone="no"?>
<svg
   xmlns:dc="http://purl.org/dc/elements/1.1/"
   xmlns:cc="http://creativecommons.org/ns#"
   xmlns:rdf="http://www.w3.org/1999/02/22-rdf-syntax-ns#"
   xmlns:svg="http://www.w3.org/2000/svg"
   xmlns="http://www.w3.org/2000/svg"
   viewBox="0 0 773.33331 320"
   height="320"
   width="773.33331"
   xml:space="preserve"
   id="svg2"
   version="1.1"><metadata
     id="metadata8"><rdf:RDF><cc:Work
         rdf:about=""><dc:format>image/svg+xml</dc:format><dc:type
           rdf:resource="http://purl.org/dc/dcmitype/StillImage" /></cc:Work></rdf:RDF></metadata><defs
     id="defs6"><clipPath
       id="clipPath18"
       clipPathUnits="userSpaceOnUse"><path
         id="path16"
         d="M 0,240 H 580 V 0 H 0 Z" /></clipPath></defs><g
     transform="matrix(1.3333333,0,0,-1.3333333,0,320)"
     id="g10"><g
       id="g12"><g
         clip-path="url(#clipPath18)"
         id="g14"><g
           transform="translate(276.2487,142.8163)"
           id="g20"><path
             id="path22"
             style="fill:#ffffff;fill-opacity:1;fill-rule:nonzero;stroke:none"
             d="m 0,0 c -7.626,0 -13.809,-6.182 -13.809,-13.809 v -55.315 c 0,-7.626 6.183,-13.809 13.809,-13.809 7.626,0 13.809,6.183 13.809,13.809 v 55.315 C 13.809,-6.182 7.626,0 0,0" /></g><g
           transform="translate(73.6754,179.5004)"
           id="g24"><path
             id="path26"
             style="fill:#ffffff;fill-opacity:1;fill-rule:nonzero;stroke:none"
             d="m 0,0 c -7.667,0 -13.883,-6.216 -13.883,-13.883 v -91.851 c 0,-7.667 6.216,-13.883 13.883,-13.883 7.667,0 13.883,6.216 13.883,13.883 v 91.851 C 13.883,-6.216 7.667,0 0,0" /></g><g
           transform="translate(119.6393,136.9398)"
           id="g28"><path
             id="path30"
             style="fill:#ffffff;fill-opacity:1;fill-rule:nonzero;stroke:none"
             d="m 0,0 c -4.312,6.159 -12.8,7.655 -18.958,3.343 -6.159,-4.312 -7.655,-12.8 -3.343,-18.958 l 38.956,-55.636 c 4.312,-6.158 12.8,-7.654 18.958,-3.343 6.159,4.313 7.656,12.8 3.344,18.958 z" /></g><g
           transform="translate(137.3956,142.8446)"
           id="g32"><path
             id="path34"
             style="fill:#ffffff;fill-opacity:1;fill-rule:nonzero;stroke:none"
             d="M 0,0 V 0 C 10.122,0 18.328,8.206 18.328,18.328 18.328,28.45 10.122,36.656 0,36.656 -10.122,36.656 -18.328,28.45 -18.328,18.328 -18.328,8.206 -10.122,0 0,0" /></g><g
           transform="translate(208.2384,83.9437)"
           id="g36"><path
             id="path38"
             style="fill:#ffffff;fill-opacity:1;fill-rule:nonzero;stroke:none"
             d="m 0,0 c -9.598,0 -17.406,7.809 -17.406,17.406 0,9.598 7.808,17.406 17.406,17.406 9.598,0 17.406,-7.808 17.406,-17.406 C 17.406,7.809 9.598,0 0,0 m 0,58.873 c -22.901,0 -41.467,-18.565 -41.467,-41.467 0,-22.901 18.566,-41.467 41.467,-41.467 7.136,0 13.851,1.804 19.714,4.979 2.179,-3.012 5.712,-4.979 9.713,-4.979 6.623,0 11.992,5.37 11.992,11.993 v 27.616 c 0.027,0.616 0.047,1.235 0.047,1.858 0,22.902 -18.565,41.467 -41.466,41.467" /></g><g
           transform="translate(362.9274,85.7875)"
           id="g40"><path
             id="path42"
             style="fill:#ffffff;fill-opacity:1;fill-rule:nonzero;stroke:none"
             d="m 0,0 c -18.695,0 -33.904,15.21 -33.904,33.904 0,18.695 15.209,33.904 33.904,33.904 18.694,0 33.903,-15.209 33.903,-33.904 C 33.903,15.21 18.694,0 0,0 m 0,93.713 c -33.031,0 -59.809,-26.777 -59.809,-59.809 0,-33.031 26.778,-59.808 59.809,-59.808 33.031,0 59.808,26.777 59.808,59.808 0,33.032 -26.777,59.809 -59.808,59.809" /></g><g
           transform="translate(483.3102,134.4662)"
           id="g44"><path
             id="path46"
             style="fill:#ffffff;fill-opacity:1;fill-rule:nonzero;stroke:none"
             d="m 0,0 h -16.3 c -5.203,0 -9.438,4.235 -9.438,9.441 0,5.684 5.264,9.068 10.465,9.478 6.402,0.508 23.946,0.143 30.165,-0.035 7.12,-0.26 13.234,5.469 13.442,12.682 0.21,7.216 -5.469,13.232 -12.682,13.442 -2.427,0.072 -24.015,0.662 -32.975,-0.034 -19.696,-1.548 -34.55,-16.822 -34.55,-35.533 0,-19.616 15.958,-35.576 35.573,-35.576 H 0 c 5.834,0 10.763,-5.038 10.763,-11.001 0,-6.843 -5.903,-10.355 -11.754,-10.8 -7.511,-0.571 -30.04,-0.172 -38.083,0.035 -7.218,0.175 -13.21,-5.522 -13.394,-12.735 -0.18,-7.216 5.519,-13.211 12.735,-13.394 1.978,-0.048 13.891,-0.338 24.893,-0.338 6.221,0 12.15,0.093 15.829,0.372 20.807,1.582 35.908,17.082 35.908,36.86 C 36.897,-16.659 20.345,0 0,0" /></g></g></g></g></svg>
